<svg xmlns="http://www.w3.org/2000/svg" version="1.1" xmlns:xlink="http://www.w3.org/1999/xlink" xmlns:svgjs="http://svgjs.com/svgjs" width="1920" height="1900" preserveAspectRatio="none" viewBox="0 0 1920 1900"><g mask="url(&quot;#SvgjsMask1068&quot;)" fill="none"><rect width="1920" height="1900" x="0" y="0" fill="rgba(31, 30, 30, 1)"></rect><path d="M0,719.541C140.304,709.582,285.195,703.932,402.926,626.965C520.215,550.286,581.756,419.417,647.978,295.922C718.493,164.419,801.444,34.068,800.868,-115.147C800.25,-275.11,734.729,-426.408,644.679,-558.618C546.604,-702.611,435.388,-866.329,264.876,-902.084C95.488,-937.603,-54.332,-798.191,-217.085,-739.323C-367.873,-684.783,-536.519,-675.246,-656.469,-568.834C-784.7,-455.075,-880.346,-299.754,-903.958,-129.97C-927.523,39.477,-869.755,209.838,-785.463,358.709C-705.761,499.473,-588.436,619.372,-441.443,686.899C-304.592,749.766,-150.222,730.204,0,719.541" fill="#171717"></path><path d="M1920 2664.06C2061.134 2640.585 2191.965 2587.716 2310.098 2507.004 2425.596 2428.092 2512.777 2322.555 2590.279 2206.1059999999998 2680.706 2070.236 2826.129 1934.535 2798.109 1773.747 2770.011 1612.511 2588.256 1531.962 2455.998 1435.555 2349.242 1357.737 2223.654 1327.5549999999998 2105.345 1268.772 1955.793 1194.466 1834.709 1025.589 1668.779 1044.421 1503.912 1063.133 1405.984 1235.0520000000001 1297.355 1360.475 1188.75 1485.871 1047.103 1607.517 1037.641 1773.136 1028.286 1936.892 1181.259 2057.054 1249.027 2206.423 1317.02 2356.287 1300.566 2559.58 1436.521 2652.308 1572.454 2745.0209999999997 1757.69 2691.057 1920 2664.06" fill="#272626"></path></g><defs><mask id="SvgjsMask1068"><rect width="1920" height="1900" fill="#ffffff"></rect></mask></defs></svg>